<svg width="16" height="16" viewBox="0 0 16 16" fill="none" xmlns="http://www.w3.org/2000/svg">
<path d="M7.99992 0.5C12.1399 0.5 15.4999 3.86 15.4999 8C15.4999 12.1475 12.1399 15.5 7.99992 15.5C3.85242 15.5 0.499924 12.1475 0.499924 8C0.499924 3.86 3.85242 0.5 7.99992 0.5ZM10.8874 5.5325C10.9699 5.27 10.7299 5.0225 10.4674 5.105L6.62742 6.305C6.46992 6.3575 6.34242 6.4775 6.29742 6.635L5.09742 10.4825C5.01492 10.7375 5.26242 10.985 5.51742 10.9025L9.34242 9.7025C9.49992 9.6575 9.62742 9.53 9.67242 9.3725L10.8874 5.5325Z" fill="white"/>
</svg>
