<svg width="17" height="17" viewBox="0 0 17 17" fill="none" xmlns="http://www.w3.org/2000/svg">
<path fill-rule="evenodd" clip-rule="evenodd" d="M6.23195 0.5C6.9452 0.50075 7.6247 0.84125 8.0507 1.4105L8.73395 2.3195C8.9507 2.6075 9.29495 2.77925 9.65495 2.78H11.7767C14.6732 2.78 16.0225 4.26425 16.0225 7.451L16.0015 11.1762C16.0007 14.1522 14.1512 16.0018 11.1737 16.0018H5.3372C2.3537 16.0018 0.499702 14.1515 0.499702 11.174V5.32475C0.499702 2.123 1.92395 0.5 4.73195 0.5H6.23195ZM6.2312 1.625H4.73195C2.55395 1.625 1.6247 2.732 1.6247 5.32475V11.174C1.6247 13.562 2.9432 14.8768 5.3372 14.8768H11.1737C13.5617 14.8768 14.8765 13.562 14.8765 11.174V11.1718L14.8975 7.448C14.8975 4.89875 14.023 3.905 11.7767 3.905H9.6542C8.94245 3.90425 8.26295 3.5645 7.83545 2.996L7.1507 2.0855C6.93545 1.79675 6.5912 1.62575 6.2312 1.625ZM11.5369 9.6596C11.8474 9.6596 12.0994 9.9116 12.0994 10.2221C12.0994 10.5326 11.8474 10.7846 11.5369 10.7846H4.9856C4.6751 10.7846 4.4231 10.5326 4.4231 10.2221C4.4231 9.9116 4.6751 9.6596 4.9856 9.6596H11.5369Z" fill="#DDDDDD"/>
</svg>
