<svg width="65" height="65" viewBox="0 0 65 65" fill="none" xmlns="http://www.w3.org/2000/svg">
<g clip-path="url(#clip0_101_450)">
<path d="M32.5013 6.5C18.1466 6.5 6.50121 18.1307 6.50121 32.4863C6.50121 46.8557 18.1466 58.5 32.5012 58.5C46.8636 58.5 58.4992 46.8556 58.4992 32.4863C58.4993 18.1307 46.8636 6.5 32.5013 6.5ZM34.354 46.9534C33.7502 47.4908 33.0504 47.7609 32.2576 47.7609C31.4373 47.7609 30.7218 47.4957 30.1111 46.9642C29.4994 46.4336 29.193 45.6908 29.193 44.7364C29.193 43.8898 29.4896 43.1772 30.0808 42.5998C30.672 42.0223 31.3972 41.7335 32.2576 41.7335C33.1042 41.7335 33.8168 42.0223 34.3952 42.5998C34.9727 43.1772 35.2624 43.8897 35.2624 44.7364C35.2613 45.6771 34.9589 46.4162 34.354 46.9534ZM41.8837 28.2864C41.4197 29.1467 40.8687 29.8886 40.2296 30.5141C39.5924 31.1395 38.4463 32.1907 36.7921 33.6686C36.336 34.0856 35.969 34.4517 35.694 34.7668C35.419 35.083 35.2134 35.3716 35.0793 35.634C34.9442 35.8962 34.8405 36.1586 34.767 36.4209C34.6936 36.6822 34.5831 37.1432 34.4333 37.8019C34.1788 39.1996 33.3792 39.8983 32.0353 39.8983C31.3364 39.8983 30.7492 39.6703 30.2705 39.2132C29.7938 38.7561 29.556 38.0778 29.556 37.1774C29.556 36.0489 29.7312 35.0711 30.0807 34.2441C30.4282 33.417 30.8931 32.6918 31.4706 32.0663C32.049 31.4409 32.8281 30.699 33.8098 29.8386C34.6701 29.0859 35.2917 28.5183 35.6743 28.1355C36.058 27.7519 36.3801 27.3252 36.6414 26.8553C36.9047 26.3845 37.0339 25.8746 37.0339 25.3236C37.0339 24.2479 36.6356 23.3416 35.835 22.6027C35.0353 21.8637 34.0036 21.4937 32.7401 21.4937C31.2612 21.4937 30.1728 21.8666 29.4739 22.6124C28.775 23.3582 28.1849 24.4564 27.7004 25.9079C27.2423 27.427 26.3751 28.1865 25.0997 28.1865C24.3471 28.1865 23.7119 27.9212 23.1941 27.3907C22.6773 26.8601 22.4189 26.2857 22.4189 25.6671C22.4189 24.3908 22.829 23.0968 23.6483 21.7863C24.4686 20.4757 25.6646 19.3902 27.2374 18.5308C28.8092 17.6705 30.6445 17.2398 32.7401 17.2398C34.6888 17.2398 36.4085 17.5999 37.9001 18.3194C39.3918 19.0378 40.5447 20.0156 41.3581 21.2527C42.1705 22.4889 42.5776 23.8328 42.5776 25.2843C42.5795 26.4247 42.3476 27.4261 41.8837 28.2864Z" fill="white"/>
</g>
<defs>
<clipPath id="clip0_101_450">
<rect width="52" height="52" fill="white" transform="translate(6.5 6.5)"/>
</clipPath>
</defs>
</svg>
