<svg width="16" height="16" viewBox="0 0 16 16" fill="none" xmlns="http://www.w3.org/2000/svg">
<path fill-rule="evenodd" clip-rule="evenodd" d="M7.48122 0.5C9.31572 0.5 10.8082 1.9925 10.8082 3.827V4.526C10.8082 4.8365 10.5562 5.0885 10.2457 5.0885C9.93522 5.0885 9.68322 4.8365 9.68322 4.526V3.827C9.68322 2.612 8.69547 1.625 7.48122 1.625H3.82497C2.61222 1.625 1.62522 2.612 1.62522 3.827V12.1737C1.62522 13.388 2.61222 14.375 3.82497 14.375H7.48947C8.69847 14.375 9.68322 13.391 9.68322 12.182V11.4748C9.68322 11.1643 9.93522 10.9123 10.2457 10.9123C10.5562 10.9123 10.8082 11.1643 10.8082 11.4748V12.182C10.8082 14.012 9.31872 15.5 7.48947 15.5H3.82497C1.99197 15.5 0.500221 14.0082 0.500221 12.1737V3.827C0.500221 1.9925 1.99197 0.5 3.82497 0.5H7.48122ZM13.5413 5.4155L15.7373 7.60175C15.7569 7.62119 15.7744 7.6414 15.7905 7.6628L15.7373 7.60175C15.7639 7.62795 15.7875 7.65657 15.808 7.6871C15.817 7.70093 15.8257 7.71524 15.8338 7.72994C15.8403 7.74142 15.8464 7.75341 15.852 7.7656C15.8567 7.77636 15.8612 7.78714 15.8654 7.79808C15.8711 7.81233 15.8761 7.82698 15.8804 7.84183C15.8837 7.85353 15.8867 7.86519 15.8893 7.877C15.8927 7.89133 15.8953 7.90574 15.8974 7.92026C15.8986 7.9297 15.8997 7.9396 15.9006 7.94957C15.9023 7.96667 15.903 7.9833 15.903 8L15.8992 8.0465L15.8977 8.07629C15.8975 8.07757 15.8973 8.07884 15.8972 8.08011L15.903 8C15.903 8.04163 15.8984 8.08286 15.8895 8.12294C15.8867 8.13481 15.8837 8.14647 15.8803 8.15799C15.8761 8.17302 15.8711 8.18767 15.8656 8.20209C15.8612 8.21286 15.8567 8.22364 15.8518 8.23423C15.8464 8.24659 15.8403 8.25858 15.8339 8.27034C15.8257 8.28476 15.817 8.29907 15.8077 8.31293C15.8025 8.32115 15.7967 8.32927 15.7907 8.33724C15.7728 8.36073 15.7534 8.38283 15.7323 8.4033L13.5413 10.5852C13.4318 10.6947 13.2878 10.7495 13.1445 10.7495C13.0005 10.7495 12.8558 10.6947 12.7463 10.5837C12.5273 10.3632 12.528 10.0078 12.7478 9.78875L13.9777 8.5625H6.30957C5.99907 8.5625 5.74707 8.3105 5.74707 8C5.74707 7.6895 5.99907 7.4375 6.30957 7.4375H13.9792L12.7478 6.212C12.528 5.993 12.5265 5.6375 12.7463 5.417C12.9653 5.1965 13.3208 5.1965 13.5413 5.4155Z" fill="#DDDDDD"/>
</svg>
