<svg width="19" height="18" viewBox="0 0 19 18" fill="none" xmlns="http://www.w3.org/2000/svg">
<path fill-rule="evenodd" clip-rule="evenodd" d="M9.20812 1.21838L8.58037 1.22288L1.93275 5.76451L1.93725 6.69601L8.58375 11.1544L9.2025 11.1589L16.056 6.70051L16.0594 5.76001L9.20812 1.21838ZM3.2535 6.22463L8.90212 2.36588L14.7251 6.22463L8.90212 10.0136L3.2535 6.22463ZM8.58487 13.9669L2.01712 9.56251H4.0365L8.90212 12.825L13.9185 9.56251H15.9806L15.0806 10.1475C14.058 10.0433 13.0305 10.2921 12.1689 10.8527C11.3073 11.4133 10.6635 12.2518 10.3444 13.2289L9.20475 13.9714L8.58487 13.9669ZM10.1295 14.8399L8.90325 15.6386L4.03537 12.375H2.01712L8.58487 16.7794L9.20362 16.7839L10.3511 16.038C10.2231 15.6506 10.1485 15.2475 10.1295 14.8399ZM12.7496 11.8193C13.1177 11.5602 13.5338 11.3774 13.9735 11.2816C14.4133 11.1858 14.8678 11.1789 15.3102 11.2613C15.7527 11.3437 16.1742 11.5138 16.5499 11.7615C16.9256 12.0093 17.248 12.3297 17.4981 12.7039C17.7482 13.078 17.9209 13.4985 18.0061 13.9404C18.0913 14.3823 18.0872 14.8368 17.9942 15.2772C17.9011 15.7175 17.7209 16.1348 17.4642 16.5044C17.2074 16.8741 16.8794 17.1887 16.4992 17.4296C15.7552 17.9014 14.8561 18.0635 13.9942 17.8813C13.1322 17.6991 12.3756 17.1871 11.8861 16.4546C11.3966 15.7221 11.2128 14.8272 11.3742 13.9611C11.5355 13.095 12.0292 12.3263 12.7496 11.8193ZM14.6599 16.1134L16.6736 13.428L15.7736 12.753L14.1086 14.9738L13.1231 14.1863L12.4211 15.0638L13.8589 16.2146L14.6599 16.1134Z" fill="#DDDDDD"/>
</svg>
