<svg width="21" height="22" viewBox="0 0 21 22" fill="none" xmlns="http://www.w3.org/2000/svg">
<path d="M10.5 2.59998C5.86824 2.59998 2.1 6.36822 2.1 11C2.1 15.6317 5.86824 19.4 10.5 19.4C15.1318 19.4 18.9 15.6317 18.9 11C18.9 6.36822 15.1318 2.59998 10.5 2.59998ZM11.34 15.1286V16.04H9.66V15.1328C7.69524 14.8245 7.14 13.4511 7.14 12.68H8.82C8.82924 12.8001 8.95356 13.52 10.5 13.52C11.6592 13.52 12.18 13.0286 12.18 12.68C12.18 12.4078 12.18 11.84 10.5 11.84C7.5768 11.84 7.14 10.2608 7.14 9.31998C7.14 8.23806 8.00436 7.14942 9.66 6.87138V5.97006H11.34V6.90162C12.7966 7.24602 13.356 8.45814 13.356 9.31998H12.516L11.676 9.33509C11.6642 9.01589 11.4954 8.47998 10.5 8.47998C9.40884 8.47998 8.82 8.91342 8.82 9.31998C8.82 9.63414 8.82 10.16 10.5 10.16C13.4232 10.16 13.86 11.7392 13.86 12.68C13.86 13.7619 12.9956 14.8505 11.34 15.1286Z" fill="white"/>
</svg>
