<svg width="12" height="16" viewBox="0 0 12 16" fill="none" xmlns="http://www.w3.org/2000/svg">
<path fill-rule="evenodd" clip-rule="evenodd" d="M11.8799 12.6448C11.8799 15.1168 8.48992 15.4026 5.94067 15.4026L5.75825 15.4024C4.13408 15.3985 -7.62939e-05 15.2959 -7.62939e-05 12.6298C-7.62939e-05 10.2083 3.25369 9.88463 5.78354 9.87243L6.1231 9.87221C7.74716 9.87616 11.8799 9.9787 11.8799 12.6448ZM5.94067 10.9971C2.74492 10.9971 1.12492 11.5461 1.12492 12.6298C1.12492 13.7233 2.74492 14.2776 5.94067 14.2776C9.13567 14.2776 10.7549 13.7286 10.7549 12.6448C10.7549 11.5513 9.13567 10.9971 5.94067 10.9971ZM5.94067 0.499756C8.13667 0.499756 9.92243 2.28626 9.92243 4.48226C9.92243 6.67826 8.13667 8.46401 5.94067 8.46401H5.91667C3.72517 8.45726 1.94992 6.67001 1.9574 4.48001C1.9574 2.28626 3.74392 0.499756 5.94067 0.499756ZM5.94067 1.57076C4.33492 1.57076 3.02841 2.87651 3.02841 4.48226C3.02317 6.08276 4.31992 7.38776 5.91892 7.39376L5.94067 7.92926V7.39376C7.54567 7.39376 8.85142 6.08726 8.85142 4.48226C8.85142 2.87651 7.54567 1.57076 5.94067 1.57076Z" fill="#DDDDDD"/>
</svg>
