<svg width="40" height="40" viewBox="0 0 40 40" fill="none" xmlns="http://www.w3.org/2000/svg">
<path fill-rule="evenodd" clip-rule="evenodd" d="M17.848 23.8474L25.2575 35.654C25.5817 36.1714 26.0816 36.1614 26.2834 36.1318C26.4851 36.1021 26.9701 35.9742 27.1413 35.3828L36.038 4.42009C36.1936 3.87281 35.8966 3.5032 35.7635 3.37226C35.6345 3.2413 35.2662 2.96226 34.7374 3.11653L3.89943 12.4175C3.31484 12.5942 3.19081 13.0872 3.16444 13.2894C3.1381 13.4956 3.13421 14.0057 3.65482 14.3275L15.717 21.7365L26.2342 10.9353C26.8114 10.3427 27.7614 10.329 28.356 10.9062C28.9507 11.4835 28.9624 12.4354 28.3852 13.0281L17.848 23.8474ZM26.1517 39.1449C24.7597 39.1561 23.478 38.4585 22.7162 37.2486L14.8611 24.7295L2.08537 16.8822C0.708496 16.0353 -0.0198009 14.5131 0.189243 12.9054C0.396288 11.2977 1.48796 10.0128 3.03225 9.54637L33.8703 0.245428C35.2889 -0.182024 36.816 0.199676 37.8724 1.23519C38.9288 2.28071 39.3312 3.81751 38.9188 5.24889L30.0221 36.2096C29.5767 37.7673 28.3055 38.8756 26.7053 39.1025C26.5175 39.128 26.3356 39.1434 26.1517 39.1449Z" fill="white"/>
</svg>
