<svg width="15" height="17" viewBox="0 0 15 17" fill="none" xmlns="http://www.w3.org/2000/svg">
<path fill-rule="evenodd" clip-rule="evenodd" d="M8.2004 0.500366C8.7374 0.500366 9.2594 0.720866 9.63365 1.10412C10.0071 1.48962 10.2134 2.01837 10.1976 2.55462C10.1991 2.67537 10.2389 2.81487 10.3109 2.93712C10.4301 3.13962 10.6184 3.28212 10.8419 3.34062C11.0654 3.39612 11.2994 3.36612 11.4981 3.24837C12.4581 2.70012 13.6799 3.02862 14.2281 3.98112L14.6954 4.79037C14.7074 4.81212 14.7179 4.83312 14.7269 4.85487C15.2234 5.79312 14.8919 6.97437 13.9694 7.51362C13.8351 7.59087 13.7264 7.69887 13.6514 7.82937C13.5351 8.03112 13.5029 8.27112 13.5614 8.49162C13.6214 8.71662 13.7646 8.90337 13.9664 9.01887C14.4216 9.28062 14.7614 9.72162 14.8971 10.2309C15.0329 10.7394 14.9586 11.2914 14.6939 11.7466L14.1959 12.5761C13.6476 13.5181 12.4259 13.8444 11.4756 13.2954C11.3489 13.2226 11.2026 13.1829 11.0571 13.1791H11.0526C10.8359 13.1791 10.6131 13.2714 10.4511 13.4326C10.2869 13.5969 10.1969 13.8159 10.1984 14.0484C10.1931 15.1501 9.2969 16.0411 8.2004 16.0411H7.26065C6.1589 16.0411 5.26265 15.1456 5.26265 14.0439C5.26115 13.9081 5.22215 13.7671 5.1494 13.6449C5.03165 13.4394 4.84115 13.2924 4.6214 13.2339C4.40315 13.1754 4.1639 13.2076 3.9674 13.3216C3.4964 13.5841 2.94215 13.6479 2.43515 13.5054C1.9289 13.3621 1.49165 13.0141 1.23515 12.5529L0.766398 11.7451C0.218148 10.7941 0.544398 9.57537 1.4939 9.02637C1.76315 8.87112 1.9304 8.58162 1.9304 8.27112C1.9304 7.96062 1.76315 7.67037 1.4939 7.51512C0.543648 6.96312 0.218148 5.74137 0.765648 4.79037L1.27415 3.95562C1.8149 3.01512 3.0374 2.68362 3.99065 3.23112C4.1204 3.30837 4.2614 3.34737 4.40465 3.34887C4.8719 3.34887 5.26265 2.96337 5.27015 2.48937C5.26715 1.96662 5.4734 1.46487 5.84915 1.08612C6.2264 0.708116 6.7274 0.500366 7.26065 0.500366H8.2004ZM8.2004 1.62537H7.26065C7.02815 1.62537 6.81065 1.71612 6.6464 1.87962C6.4829 2.04387 6.39365 2.26212 6.39515 2.49462C6.3794 3.59112 5.48315 4.47387 4.3979 4.47387C4.0499 4.47012 3.71465 4.37637 3.42365 4.20237C3.0149 3.96987 2.4809 4.11312 2.24165 4.52937L1.7339 5.36412C1.5014 5.76762 1.6439 6.30087 2.0579 6.54162C2.67215 6.89712 3.0554 7.56012 3.0554 8.27112C3.0554 8.98212 2.67215 9.64437 2.0564 10.0006C1.64465 10.2391 1.50215 10.7694 1.74065 11.1819L2.2139 11.9979C2.3309 12.2086 2.52215 12.3609 2.7434 12.4231C2.9639 12.4846 3.2069 12.4584 3.4094 12.3459C3.70715 12.1711 4.05365 12.0804 4.40165 12.0804C4.5734 12.0804 4.74515 12.1021 4.91315 12.1471C5.42015 12.2836 5.8604 12.6226 6.1214 13.0779C6.2909 13.3636 6.38465 13.6974 6.38765 14.0379C6.38765 14.5254 6.77915 14.9161 7.26065 14.9161H8.2004C8.67965 14.9161 9.07115 14.5276 9.0734 14.0484C9.0704 13.5189 9.2774 13.0156 9.65615 12.6369C10.0296 12.2634 10.5516 12.0391 11.0736 12.0541C11.4156 12.0624 11.7449 12.1546 12.0351 12.3196C12.4529 12.5589 12.9861 12.4164 13.2276 12.0039L13.7256 11.1736C13.8366 10.9824 13.8689 10.7424 13.8096 10.5211C13.7511 10.2999 13.6041 10.1079 13.4061 9.99462C12.9426 9.72762 12.6119 9.29712 12.4746 8.78112C12.3389 8.27487 12.4131 7.72212 12.6779 7.26687C12.8504 6.96687 13.1031 6.71412 13.4061 6.54012C13.8126 6.30237 13.9551 5.77062 13.7189 5.35662C13.7091 5.34012 13.7001 5.32287 13.6926 5.30487L13.2531 4.54287C13.0139 4.12662 12.4814 3.98337 12.0636 4.22112C11.6121 4.48812 11.0751 4.56462 10.5591 4.42887C10.0439 4.29537 9.6119 3.96912 9.34265 3.50862C9.17015 3.22062 9.0764 2.88537 9.0734 2.54412C9.08015 2.28762 8.99015 2.05737 8.82665 1.88862C8.6639 1.72062 8.43515 1.62537 8.2004 1.62537ZM7.73382 5.73094C9.13407 5.73094 10.2733 6.87094 10.2733 8.27119C10.2733 9.67144 9.13407 10.8099 7.73382 10.8099C6.33357 10.8099 5.19432 9.67144 5.19432 8.27119C5.19432 6.87094 6.33357 5.73094 7.73382 5.73094ZM7.73382 6.85594C6.95382 6.85594 6.31932 7.49119 6.31932 8.27119C6.31932 9.05119 6.95382 9.68494 7.73382 9.68494C8.51382 9.68494 9.14832 9.05119 9.14832 8.27119C9.14832 7.49119 8.51382 6.85594 7.73382 6.85594Z" fill="#DDDDDD"/>
</svg>
