<svg width="16" height="14" viewBox="0 0 16 14" fill="none" xmlns="http://www.w3.org/2000/svg">
<path d="M11.6321 2.37921C11.9161 2.37692 12.1525 2.5861 12.1919 2.85965L12.1976 2.93574L12.2687 11.7629L14.3435 9.6459C14.5604 9.42453 14.9156 9.42085 15.137 9.63767C15.3382 9.83479 15.3596 10.1463 15.1989 10.3676L15.1452 10.4311L12.1195 13.5203C12.1012 13.5385 12.0826 13.555 12.063 13.5703L12.1195 13.5203C12.0922 13.5481 12.0627 13.5726 12.0315 13.5935C12.0207 13.6004 12.0094 13.6075 11.9978 13.6141C11.9871 13.6207 11.9762 13.6265 11.9651 13.6319C11.9542 13.6368 11.9431 13.6418 11.9319 13.6464C11.9176 13.6527 11.9029 13.658 11.8881 13.6627C11.8793 13.6651 11.8704 13.6677 11.8613 13.67C11.8452 13.6746 11.829 13.6781 11.8127 13.6808C11.805 13.6818 11.797 13.683 11.789 13.684C11.7705 13.6866 11.7523 13.688 11.734 13.6885C11.7304 13.6882 11.7268 13.6883 11.7232 13.6883L11.7123 13.6887C11.694 13.6885 11.6758 13.6874 11.6575 13.6854L11.7232 13.6883C11.6927 13.6886 11.6627 13.6864 11.6334 13.6819C11.6172 13.6798 11.6009 13.6766 11.5848 13.6726C11.5763 13.6702 11.5677 13.6679 11.5593 13.6653C11.5431 13.661 11.5271 13.6555 11.5113 13.6492C11.5027 13.6453 11.4943 13.6417 11.4861 13.638C11.4731 13.6326 11.4601 13.626 11.4473 13.6189C11.4358 13.612 11.4244 13.6052 11.4133 13.598C11.4046 13.5929 11.3961 13.587 11.3876 13.5808L11.3816 13.5758C11.3617 13.5608 11.3429 13.5446 11.3252 13.5272L11.3242 13.5267L8.24904 10.4867C8.02867 10.2689 8.02663 9.91361 8.24447 9.69325C8.44252 9.49291 8.75411 9.47301 8.97469 9.63472L9.03793 9.68868L11.1466 11.7735L11.0755 2.94479C11.073 2.63493 11.3222 2.38171 11.6321 2.37921ZM4.18856 0.409181L4.19949 0.408782C4.21777 0.408986 4.23605 0.410078 4.25425 0.412059L4.18856 0.409181C4.21913 0.408935 4.24914 0.411137 4.27842 0.415605C4.29442 0.417661 4.3105 0.420835 4.32645 0.424717C4.33582 0.427387 4.34538 0.429986 4.35484 0.432829C4.3696 0.436863 4.3839 0.441797 4.39802 0.447325C4.40824 0.451773 4.41857 0.456194 4.42875 0.46091C4.44084 0.466022 4.45275 0.472057 4.46448 0.478544C4.47453 0.48462 4.48448 0.490538 4.49423 0.49675C4.50425 0.5026 4.5143 0.509461 4.52416 0.516686L4.58761 0.570804L7.66277 3.61078C7.88313 3.82863 7.88518 4.18387 7.66733 4.40424C7.46929 4.60457 7.1577 4.62448 6.93711 4.46277L6.87387 4.4088L4.76458 2.32314L4.83627 11.1527C4.83877 11.4626 4.58961 11.7158 4.27975 11.7183C3.99571 11.7206 3.75927 11.5114 3.71991 11.2378L3.71417 11.1617L3.64249 2.33293L1.56826 4.45158C1.37114 4.65283 1.05965 4.67417 0.83832 4.51348L0.774832 4.45981C0.573585 4.2627 0.552244 3.9512 0.712932 3.72988L0.766601 3.66639L3.79234 0.577216L3.82513 0.546656C3.83283 0.539956 3.84072 0.533464 3.84879 0.527186L3.79234 0.577216C3.81964 0.549345 3.84913 0.524926 3.88026 0.503963C3.89113 0.49707 3.90243 0.490032 3.91399 0.483393C3.92471 0.476809 3.93562 0.471021 3.94668 0.465617C3.95759 0.46068 3.96867 0.455697 3.97993 0.45107C3.99423 0.444818 4.0089 0.439504 4.02374 0.43482C4.03277 0.432318 4.04201 0.429653 4.05135 0.427222C4.06639 0.422961 4.0816 0.419673 4.0969 0.417022C4.10611 0.415796 4.11513 0.414466 4.12421 0.413354C4.14151 0.410835 4.15927 0.409486 4.17705 0.408978C4.18098 0.40928 4.18476 0.409212 4.18856 0.409181Z" fill="black"/>
</svg>
