<svg width="20" height="20" viewBox="0 0 20 20" fill="none" xmlns="http://www.w3.org/2000/svg">
<path d="M5.58335 16.0834L3.29169 15.5834C3.08335 15.5417 2.91669 15.4339 2.79169 15.26C2.66669 15.0867 2.61808 14.8959 2.64585 14.6875L2.87502 12.3334L1.31252 10.5417C1.17363 10.3889 1.10419 10.2084 1.10419 10C1.10419 9.7917 1.17363 9.61114 1.31252 9.45836L2.87502 7.6667L2.64585 5.31253C2.61808 5.1042 2.66669 4.91336 2.79169 4.74003C2.91669 4.56614 3.08335 4.45836 3.29169 4.4167L5.58335 3.9167L6.79169 1.87503C6.9028 1.69447 7.05558 1.57642 7.25002 1.52086C7.44447 1.46531 7.63891 1.47225 7.83335 1.5417L10 2.45836L12.1667 1.5417C12.3611 1.47225 12.5556 1.46531 12.75 1.52086C12.9445 1.57642 13.0972 1.69447 13.2084 1.87503L14.4167 3.9167L16.7084 4.4167C16.9167 4.45836 17.0834 4.56614 17.2084 4.74003C17.3334 4.91336 17.382 5.1042 17.3542 5.31253L17.125 7.6667L18.6875 9.45836C18.8264 9.61114 18.8959 9.7917 18.8959 10C18.8959 10.2084 18.8264 10.3889 18.6875 10.5417L17.125 12.3334L17.3542 14.6875C17.382 14.8959 17.3334 15.0867 17.2084 15.26C17.0834 15.4339 16.9167 15.5417 16.7084 15.5834L14.4167 16.0834L13.2084 18.125C13.0972 18.3056 12.9445 18.4236 12.75 18.4792C12.5556 18.5348 12.3611 18.5278 12.1667 18.4584L10 17.5417L7.83335 18.4584C7.63891 18.5278 7.44447 18.5348 7.25002 18.4792C7.05558 18.4236 6.9028 18.3056 6.79169 18.125L5.58335 16.0834ZM8.54169 12.375C8.69447 12.5278 8.88891 12.6042 9.12502 12.6042C9.36113 12.6042 9.55558 12.5278 9.70835 12.375L13.25 8.83336C13.4167 8.6667 13.5 8.46864 13.5 8.2392C13.5 8.01031 13.4167 7.81253 13.25 7.64586C13.0834 7.4792 12.8856 7.39586 12.6567 7.39586C12.4272 7.39586 12.2292 7.4792 12.0625 7.64586L9.12502 10.5834L7.91669 9.39586C7.75002 9.24308 7.55224 9.17003 7.32335 9.1767C7.09391 9.18392 6.9028 9.26392 6.75002 9.4167C6.59724 9.56947 6.52085 9.76392 6.52085 10C6.52085 10.2361 6.59724 10.4306 6.75002 10.5834L8.54169 12.375Z" fill="#7B61FF"/>
</svg>
